<svg width="32" height="32" viewBox="0 0 32 32" fill="none" xmlns="http://www.w3.org/2000/svg">
<path d="M26.3097 6.488C24.3608 5.58002 22.2996 4.9355 20.1806 4.57143C19.8911 5.09943 19.6294 5.63962 19.3955 6.192C17.1441 5.85375 14.8548 5.85375 12.6035 6.192C12.365 5.63886 12.1018 5.10057 11.8138 4.57714C9.69261 4.94286 7.63204 5.58286 5.67661 6.49371C1.79089 12.3189 0.742895 18.0046 1.26975 23.6023C3.53705 25.3018 6.08122 26.5963 8.78975 27.4286C9.39775 26.5989 9.93718 25.7143 10.3977 24.7897C9.51605 24.4568 8.66646 24.0445 7.85947 23.5577C8.07432 23.4011 8.28232 23.2446 8.48461 23.0686C10.8308 24.1917 13.3989 24.7747 16 24.7747C18.6012 24.7747 21.1693 24.1917 23.5155 23.0686C23.7189 23.2377 23.925 23.4008 24.1338 23.5577C23.3258 24.0423 22.4732 24.4571 21.5966 24.7897C22.0621 25.7147 22.5974 26.592 23.2023 27.4217C25.9108 26.5898 28.4549 25.2956 30.7223 23.5966H30.7303C31.3486 17.112 29.6766 11.4823 26.3097 6.488ZM11.064 20.1577C9.59775 20.1577 8.38975 18.7943 8.38975 17.136C8.38975 15.4777 9.56689 14.1143 11.064 14.1143C12.5589 14.1143 13.76 15.4777 13.736 17.136C13.736 18.7943 12.5532 20.1577 11.064 20.1577ZM20.9315 20.1577C19.4652 20.1577 18.2572 18.7943 18.2572 17.136C18.2572 15.4777 19.4412 14.1143 20.9315 14.1143C22.4195 14.1143 23.6286 15.4777 23.6035 17.136C23.6035 18.7943 22.4195 20.1577 20.9315 20.1577Z" fill="white"/>
</svg>
