<svg width="32" height="32" viewBox="0 0 32 32" fill="none" xmlns="http://www.w3.org/2000/svg">
<g clip-path="url(#clip0_28_3022)">
<path d="M8.94663 0H22.3866C24.8478 0 27.2082 0.977711 28.9486 2.71805C30.6889 4.45839 31.6666 6.81879 31.6666 9.28V22.72C31.6666 25.1812 30.6889 27.5416 28.9486 29.282C27.2082 31.0223 24.8478 32 22.3866 32H8.94663C6.48542 32 4.12501 31.0223 2.38468 29.282C0.644337 27.5416 -0.333374 25.1812 -0.333374 22.72V9.28C-0.333374 6.81879 0.644337 4.45839 2.38468 2.71805C4.12501 0.977711 6.48542 0 8.94663 0ZM8.62663 3.2C7.09898 3.2 5.6339 3.80686 4.55369 4.88707C3.47348 5.96727 2.86663 7.43235 2.86663 8.96V23.04C2.86663 24.5676 3.47348 26.0327 4.55369 27.1129C5.6339 28.1931 7.09898 28.8 8.62663 28.8H22.7066C24.2343 28.8 25.6994 28.1931 26.7796 27.1129C27.8598 26.0327 28.4666 24.5676 28.4666 23.04V8.96C28.4666 7.43235 27.8598 5.96727 26.7796 4.88707C25.6994 3.80686 24.2343 3.2 22.7066 3.2H8.62663ZM24.0666 5.6C24.4622 5.6 24.8489 5.7173 25.1778 5.93706C25.5067 6.15682 25.763 6.46918 25.9144 6.83463C26.0658 7.20009 26.1054 7.60222 26.0282 7.99018C25.951 8.37814 25.7605 8.73451 25.4808 9.01421C25.2011 9.29392 24.8448 9.4844 24.4568 9.56157C24.0688 9.63874 23.6667 9.59913 23.3013 9.44776C22.9358 9.29638 22.6234 9.04004 22.4037 8.71114C22.1839 8.38224 22.0666 7.99556 22.0666 7.6C22.0666 7.06957 22.2773 6.56086 22.6524 6.18579C23.0275 5.81071 23.5362 5.6 24.0666 5.6ZM15.6666 8C17.2489 8 18.7956 8.46919 20.1112 9.34824C21.4268 10.2273 22.4522 11.4767 23.0577 12.9385C23.6632 14.4003 23.8216 16.0089 23.5129 17.5607C23.2042 19.1126 22.4423 20.538 21.3235 21.6569C20.2047 22.7757 18.7792 23.5376 17.2273 23.8463C15.6755 24.155 14.067 23.9965 12.6052 23.391C11.1434 22.7855 9.89392 21.7602 9.01487 20.4446C8.13582 19.129 7.66663 17.5823 7.66663 16C7.66663 13.8783 8.50948 11.8434 10.0098 10.3431C11.5101 8.84285 13.5449 8 15.6666 8ZM15.6666 11.2C14.7173 11.2 13.7892 11.4815 12.9999 12.0089C12.2105 12.5364 11.5953 13.286 11.232 14.1631C10.8687 15.0402 10.7736 16.0053 10.9589 16.9364C11.1441 17.8675 11.6012 18.7228 12.2725 19.3941C12.9438 20.0654 13.7991 20.5226 14.7302 20.7078C15.6613 20.893 16.6264 20.7979 17.5035 20.4346C18.3806 20.0713 19.1302 19.4561 19.6577 18.6667C20.1851 17.8774 20.4666 16.9494 20.4666 16C20.4666 14.727 19.9609 13.5061 19.0607 12.6059C18.1606 11.7057 16.9397 11.2 15.6666 11.2Z" fill="white"/>
</g>
<defs>
<clipPath id="clip0_28_3022">
<rect width="32" height="32" fill="white"/>
</clipPath>
</defs>
</svg>
