<svg width="116" height="90" viewBox="0 0 116 90" fill="none" xmlns="http://www.w3.org/2000/svg">
<path d="M39.1118 0V15.6921H44.0644V0H39.1118Z" fill="white"/>
<rect width="14.8579" height="5.2307" transform="matrix(1 0 0 -1 15.0562 30.6369)" fill="white"/>
<path fill-rule="evenodd" clip-rule="evenodd" d="M20.7163 22.8901H31.8597V28.2084H31.8608C31.885 29.9717 32.3298 31.6964 33.1496 33.2227H20.7163V38.483H41.6698H41.6834H41.765V38.4826C42.3756 38.4767 42.9872 38.4104 43.5917 38.2826C45.496 37.8803 47.2452 36.8873 48.6181 35.4291C49.991 33.9709 50.926 32.1131 51.3048 30.0905C51.4214 29.4676 51.4837 28.8376 51.4923 28.2084H51.4934V28.064V28.049V5.97794H46.5408V18.9998C45.0879 18.1196 43.4442 17.6463 41.765 17.6303V17.6299L41.6766 17.6299L36.8124 17.6299V5.97794H31.8597V17.6299H20.7163V22.8901ZM41.6766 22.8901C42.6386 22.8901 43.579 23.1931 44.379 23.7608C45.1789 24.3285 45.8023 25.1353 46.1705 26.0794C46.4161 26.7092 46.5408 27.3813 46.5408 28.0565C46.5408 28.3932 46.5097 28.7308 46.4473 29.0643C46.2596 30.0665 45.7963 30.987 45.1161 31.7096C44.4358 32.4321 43.5691 32.9241 42.6255 33.1235C41.682 33.3228 40.7039 33.2205 39.8151 32.8295C38.9263 32.4384 38.1666 31.7763 37.6321 30.9267C37.0976 30.0771 36.8124 29.0782 36.8124 28.0564L36.8124 22.8901H41.6766Z" fill="#808080"/>
<path d="M94.1012 25.4062H79.2433V30.6369H94.1012V25.4062Z" fill="white"/>
<rect width="15.6921" height="4.95263" transform="matrix(0 1 1 0 65.0929 0)" fill="white"/>
<path fill-rule="evenodd" clip-rule="evenodd" d="M57.664 28.2084V28.1224V28.1077V5.97794H62.6446V19.1092C64.0897 18.2435 65.7228 17.7737 67.3924 17.7481V17.747H67.5363H72.4279V5.97794H77.4085V17.747H88.441V22.9777H77.4085L77.4085 28.115C77.4085 28.1193 77.4085 28.1236 77.4085 28.1279V28.2084H77.4081C77.3929 29.9819 76.9449 31.7179 76.1114 33.2523H88.441V38.483H67.5454H67.527H67.3924V38.4819C66.7966 38.4728 66.2001 38.407 65.6103 38.2838C63.6952 37.8837 61.9362 36.8963 60.5555 35.4463C59.1748 33.9963 58.2346 32.1489 57.8537 30.1377C57.7327 29.4992 57.6699 28.8533 57.6644 28.2084H57.664ZM72.4279 28.1229C72.4264 29.1362 72.1397 30.1265 71.6035 30.9691C71.066 31.814 70.3021 32.4724 69.4082 32.8612C68.8136 33.1199 68.1792 33.2515 67.5418 33.2523H67.5306C67.2136 33.2519 66.8959 33.2192 66.5819 33.1536C65.633 32.9554 64.7614 32.4661 64.0773 31.7476C63.3932 31.0292 62.9273 30.1138 62.7386 29.1172C62.6762 28.7877 62.645 28.4542 62.6446 28.1214V28.1087C62.6454 27.4394 62.7707 26.7734 63.0169 26.149C63.3872 25.2103 64.0142 24.408 64.8186 23.8435C65.623 23.279 66.5688 22.9777 67.5363 22.9777H72.4279V28.1229Z" fill="#808080"/>
<path d="M39.1118 90V74.3079H44.0644V90H39.1118Z" fill="white"/>
<rect x="15.0562" y="59.3631" width="14.8579" height="5.2307" fill="white"/>
<path fill-rule="evenodd" clip-rule="evenodd" d="M20.7163 67.1099H31.8597V61.7916H31.8608C31.885 60.0283 32.3298 58.3036 33.1496 56.7773H20.7163V51.517H41.6669H41.6864H41.765V51.5174C42.3756 51.5233 42.9872 51.5896 43.5917 51.7174C45.496 52.1197 47.2452 53.1127 48.6181 54.5709C49.991 56.0291 50.926 57.8869 51.3048 59.9095C51.4214 60.5324 51.4837 61.1624 51.4923 61.7916H51.4934V61.936V61.951V84.0221H46.5408V71.0002C45.0879 71.8804 43.4442 72.3537 41.765 72.3697V72.3701H41.6766H36.8124V84.0221H31.8597V72.3701H20.7163V67.1099ZM41.6766 67.1099C42.6386 67.1099 43.579 66.8069 44.379 66.2392C45.1789 65.6715 45.8023 64.8647 46.1705 63.9206C46.4161 63.2908 46.5408 62.6187 46.5408 61.9435C46.5408 61.6068 46.5097 61.2692 46.4473 60.9357C46.2596 59.9335 45.7963 59.013 45.1161 58.2904C44.4358 57.5679 43.5691 57.0759 42.6255 56.8765C42.3131 56.8105 41.9969 56.7776 41.6815 56.7773H41.6717C41.0376 56.7779 40.4066 56.9103 39.8151 57.1705C38.9263 57.5616 38.1666 58.2237 37.6321 59.0733C37.0976 59.9229 36.8124 60.9218 36.8124 61.9436L36.8124 67.1099L41.6766 67.1099Z" fill="#808080"/>
<path d="M94.1012 64.5938H79.2433V59.3631H94.1012V64.5938Z" fill="white"/>
<rect x="65.0929" y="90" width="15.6921" height="4.95263" transform="rotate(-90 65.0929 90)" fill="white"/>
<path fill-rule="evenodd" clip-rule="evenodd" d="M57.664 61.7916V61.8776V61.8923V84.0221H62.6446V70.8908C64.0897 71.7565 65.7228 72.2263 67.3924 72.2519V72.253H67.5363H72.4279V84.0221H77.4085V72.253H88.441V67.0223H77.4085L77.4085 61.885C77.4085 61.8807 77.4085 61.8764 77.4085 61.8721V61.7916H77.4081C77.3929 60.0181 76.9449 58.2821 76.1114 56.7477H88.441V51.517H67.5454H67.527H67.3924V51.5181C66.7966 51.5272 66.2001 51.593 65.6103 51.7162C63.6952 52.1163 61.9362 53.1037 60.5555 54.5537C59.1748 56.0037 58.2346 57.8511 57.8537 59.8623C57.7327 60.5008 57.6699 61.1467 57.6644 61.7916H57.664ZM72.4279 61.8771C72.4264 60.8638 72.1397 59.8735 71.6035 59.0309C71.066 58.1861 70.3021 57.5276 69.4082 57.1388C68.8128 56.8798 68.1776 56.7481 67.5393 56.7477H67.5331C67.2153 56.7479 66.8967 56.7807 66.5819 56.8464C65.633 57.0446 64.7614 57.5339 64.0773 58.2524C63.3932 58.9708 62.9273 59.8862 62.7386 60.8828C62.6762 61.2123 62.645 61.5459 62.6446 61.8786V61.8913C62.6454 62.5606 62.7707 63.2266 63.0169 63.851C63.3872 64.7897 64.0142 65.592 64.8186 66.1565C65.6219 66.7202 66.566 67.0214 67.532 67.0223C67.5334 67.0223 67.5349 67.0223 67.5363 67.0223L72.4279 67.0223V61.8771Z" fill="#808080"/>
<path d="M3.51027 48.8841H2.65827C2.55427 48.8841 2.48627 48.8281 2.45427 48.7161L0.330271 41.3481C0.306271 41.2281 0.358271 41.1681 0.486271 41.1681H1.07427C1.17827 41.1681 1.24227 41.2241 1.26627 41.3361L3.05427 47.9001H3.10227L4.89027 41.3361C4.91427 41.2241 4.97827 41.1681 5.08227 41.1681H5.68227C5.80227 41.1681 5.85027 41.2281 5.82627 41.3481L3.70227 48.7161C3.67027 48.8281 3.60627 48.8841 3.51027 48.8841ZM9.16058 41.7561V40.6281C9.16058 40.5161 9.21258 40.4601 9.31658 40.4601H9.86858C9.98058 40.4601 10.0366 40.5161 10.0366 40.6281V41.7561C10.0366 41.8681 9.98058 41.9241 9.86858 41.9241H9.31658C9.21258 41.9241 9.16058 41.8681 9.16058 41.7561ZM9.16058 48.7161V42.9321C9.16058 42.8201 9.21258 42.7641 9.31658 42.7641H9.86858C9.98058 42.7641 10.0366 42.8201 10.0366 42.9321V48.7161C10.0366 48.8281 9.98058 48.8841 9.86858 48.8841H9.32858C9.21658 48.8841 9.16058 48.8281 9.16058 48.7161ZM14.617 48.8841H14.077C13.965 48.8841 13.909 48.8281 13.909 48.7161V42.9321C13.909 42.8201 13.965 42.7641 14.077 42.7641H14.617C14.729 42.7641 14.785 42.8201 14.785 42.9321V43.4121H14.833C14.913 43.2361 15.065 43.0841 15.289 42.9561C15.513 42.8281 15.777 42.7641 16.081 42.7641H16.549C16.653 42.7641 16.705 42.8201 16.705 42.9321V43.3761C16.705 43.4321 16.693 43.4761 16.669 43.5081C16.645 43.5321 16.605 43.5401 16.549 43.5321H15.901C15.541 43.5321 15.265 43.6401 15.073 43.8561C14.881 44.0721 14.785 44.3681 14.785 44.7441V48.7161C14.785 48.8281 14.729 48.8841 14.617 48.8841ZM20.1759 43.5321H19.5159C19.4039 43.5321 19.3479 43.4801 19.3479 43.3761V42.9321C19.3479 42.8201 19.4039 42.7641 19.5159 42.7641H20.1759C20.2559 42.7641 20.2959 42.7281 20.2959 42.6561V41.6241C20.2959 41.5121 20.3519 41.4561 20.4639 41.4561H21.0039C21.1079 41.4561 21.1599 41.5121 21.1599 41.6241V42.6561C21.1599 42.7281 21.2039 42.7641 21.2919 42.7641H22.5639C22.6839 42.7641 22.7439 42.8201 22.7439 42.9321V43.3761C22.7439 43.4801 22.6839 43.5321 22.5639 43.5321H21.2919C21.2039 43.5321 21.1599 43.5681 21.1599 43.6401V47.0961C21.1599 47.7761 21.5119 48.1161 22.2159 48.1161H22.6839C22.8039 48.1161 22.8639 48.1721 22.8639 48.2841V48.7281C22.8639 48.8321 22.8039 48.8841 22.6839 48.8841H22.1079C21.5559 48.8841 21.1159 48.7321 20.7879 48.4281C20.4599 48.1161 20.2959 47.6841 20.2959 47.1321V43.6401C20.2959 43.5681 20.2559 43.5321 20.1759 43.5321ZM28.6315 48.8841H27.9595C27.4155 48.8841 26.9915 48.7281 26.6875 48.4161C26.3835 48.1041 26.2315 47.6681 26.2315 47.1081V42.9321C26.2315 42.8201 26.2875 42.7641 26.3995 42.7641H26.9395C27.0515 42.7641 27.1075 42.8201 27.1075 42.9321V47.0721C27.1075 47.7681 27.4395 48.1161 28.1035 48.1161H28.7875C29.1475 48.1161 29.4235 48.0201 29.6155 47.8281C29.8075 47.6361 29.9035 47.3641 29.9035 47.0121V42.9321C29.9035 42.8201 29.9595 42.7641 30.0715 42.7641H30.6115C30.7235 42.7641 30.7795 42.8201 30.7795 42.9321V48.7161C30.7795 48.8281 30.7235 48.8841 30.6115 48.8841H30.0715C29.9595 48.8841 29.9035 48.8281 29.9035 48.7161V48.2481H29.8555C29.6555 48.6721 29.2475 48.8841 28.6315 48.8841ZM36.8721 48.8841H36.2481C35.6961 48.8841 35.2601 48.7281 34.9401 48.4161C34.6281 48.1041 34.4721 47.6681 34.4721 47.1081V44.5401C34.4721 43.9801 34.6281 43.5441 34.9401 43.2321C35.2601 42.9201 35.6961 42.7641 36.2481 42.7641H38.8521C38.9641 42.7641 39.0201 42.8201 39.0201 42.9321V48.7161C39.0201 48.8281 38.9641 48.8841 38.8521 48.8841H38.3121C38.2001 48.8841 38.1441 48.8281 38.1441 48.7161V48.2481H38.0961C37.8961 48.6721 37.4881 48.8841 36.8721 48.8841ZM38.1441 47.0121V43.6401C38.1441 43.5681 38.1041 43.5321 38.0241 43.5321H36.3441C35.6801 43.5321 35.3481 43.8801 35.3481 44.5761V47.0721C35.3481 47.7681 35.6801 48.1161 36.3441 48.1161H37.0281C37.3881 48.1161 37.6641 48.0201 37.8561 47.8281C38.0481 47.6361 38.1441 47.3641 38.1441 47.0121ZM43.6022 48.8841H43.0622C42.9502 48.8841 42.8942 48.8281 42.8942 48.7161V40.6161C42.8942 40.5041 42.9502 40.4481 43.0622 40.4481H43.6022C43.7142 40.4481 43.7702 40.5041 43.7702 40.6161V48.7161C43.7702 48.8281 43.7142 48.8841 43.6022 48.8841ZM56.9055 48.8841H53.1375C53.0255 48.8841 52.9695 48.8281 52.9695 48.7161V41.3361C52.9695 41.2241 53.0255 41.1681 53.1375 41.1681H56.9055C57.0175 41.1681 57.0735 41.2241 57.0735 41.3361V41.7681C57.0735 41.8801 57.0175 41.9361 56.9055 41.9361H53.9655C53.8855 41.9361 53.8455 41.9721 53.8455 42.0441V44.4681C53.8455 44.5401 53.8855 44.5761 53.9655 44.5761H56.5335C56.6455 44.5761 56.7015 44.6321 56.7015 44.7441V45.1761C56.7015 45.2881 56.6455 45.3441 56.5335 45.3441H53.9655C53.8855 45.3441 53.8455 45.3801 53.8455 45.4521V48.0081C53.8455 48.0801 53.8855 48.1161 53.9655 48.1161H56.9055C57.0175 48.1161 57.0735 48.1721 57.0735 48.2841V48.7161C57.0735 48.8281 57.0175 48.8841 56.9055 48.8841ZM61.0151 48.8841H60.3431C60.2151 48.8841 60.1831 48.8281 60.2471 48.7161L61.9271 45.7641L60.3071 42.9321C60.2431 42.8201 60.2711 42.7641 60.3911 42.7641H61.0631C61.1671 42.7641 61.2511 42.8201 61.3151 42.9321L62.4911 45.2001H62.5391L63.6551 42.9321C63.7111 42.8201 63.7951 42.7641 63.9071 42.7641H64.5671C64.7031 42.7641 64.7311 42.8201 64.6511 42.9321L63.0791 45.7521L64.7831 48.7161C64.8551 48.8281 64.8271 48.8841 64.6991 48.8841H64.0031C63.9151 48.8841 63.8391 48.8281 63.7751 48.7161L62.5391 46.3521H62.4911L61.2551 48.7161C61.2071 48.8281 61.1271 48.8841 61.0151 48.8841ZM68.1162 41.7561V40.6281C68.1162 40.5161 68.1682 40.4601 68.2722 40.4601H68.8242C68.9362 40.4601 68.9922 40.5161 68.9922 40.6281V41.7561C68.9922 41.8681 68.9362 41.9241 68.8242 41.9241H68.2722C68.1682 41.9241 68.1162 41.8681 68.1162 41.7561ZM68.1162 48.7161V42.9321C68.1162 42.8201 68.1682 42.7641 68.2722 42.7641H68.8242C68.9362 42.7641 68.9922 42.8201 68.9922 42.9321V48.7161C68.9922 48.8281 68.9362 48.8841 68.8242 48.8841H68.2842C68.1722 48.8841 68.1162 48.8281 68.1162 48.7161ZM74.9407 48.8841H72.8047C72.6927 48.8841 72.6367 48.8281 72.6367 48.7161V48.2961C72.6367 48.1921 72.6927 48.1401 72.8047 48.1401H74.8207C75.4447 48.1401 75.7567 47.9081 75.7567 47.4441V47.2161C75.7567 46.7921 75.5527 46.5001 75.1447 46.3401L73.7287 45.7401C73.3207 45.5721 73.0287 45.3761 72.8527 45.1521C72.6767 44.9201 72.5887 44.6161 72.5887 44.2401C72.5887 43.2561 73.1287 42.7641 74.2087 42.7641H76.1767C76.2887 42.7641 76.3447 42.8201 76.3447 42.9321V43.3521C76.3447 43.4561 76.2887 43.5081 76.1767 43.5081H74.3647C74.0767 43.5081 73.8567 43.5681 73.7047 43.6881C73.5607 43.8081 73.4887 43.9481 73.4887 44.1081V44.3121C73.4887 44.6481 73.7167 44.9041 74.1727 45.0801L75.5887 45.7161C76.0047 45.8761 76.2847 46.0881 76.4287 46.3521C76.5807 46.6161 76.6567 46.9801 76.6567 47.4441C76.6567 48.4041 76.0847 48.8841 74.9407 48.8841ZM80.444 43.5321H79.784C79.672 43.5321 79.616 43.4801 79.616 43.3761V42.9321C79.616 42.8201 79.672 42.7641 79.784 42.7641H80.444C80.524 42.7641 80.564 42.7281 80.564 42.6561V41.6241C80.564 41.5121 80.62 41.4561 80.732 41.4561H81.272C81.376 41.4561 81.428 41.5121 81.428 41.6241V42.6561C81.428 42.7281 81.472 42.7641 81.56 42.7641H82.832C82.952 42.7641 83.012 42.8201 83.012 42.9321V43.3761C83.012 43.4801 82.952 43.5321 82.832 43.5321H81.56C81.472 43.5321 81.428 43.5681 81.428 43.6401V47.0961C81.428 47.7761 81.78 48.1161 82.484 48.1161H82.952C83.072 48.1161 83.132 48.1721 83.132 48.2841V48.7281C83.132 48.8321 83.072 48.8841 82.952 48.8841H82.376C81.824 48.8841 81.384 48.7321 81.056 48.4281C80.728 48.1161 80.564 47.6841 80.564 47.1321V43.6401C80.564 43.5681 80.524 43.5321 80.444 43.5321ZM90.7596 48.8841H88.2156C87.6636 48.8841 87.2276 48.7281 86.9076 48.4161C86.5956 48.1041 86.4396 47.6681 86.4396 47.1081V44.5401C86.4396 43.9801 86.5956 43.5441 86.9076 43.2321C87.2276 42.9201 87.6636 42.7641 88.2156 42.7641H89.2236C89.7756 42.7641 90.2076 42.9201 90.5196 43.2321C90.8316 43.5441 90.9876 43.9801 90.9876 44.5401V46.0641C90.9876 46.1841 90.9316 46.2441 90.8196 46.2441H87.4236C87.3436 46.2441 87.3036 46.2801 87.3036 46.3521V47.0841C87.3036 47.7801 87.6396 48.1281 88.3116 48.1281H90.7596C90.8716 48.1281 90.9276 48.1841 90.9276 48.2961V48.7281C90.9276 48.8321 90.8716 48.8841 90.7596 48.8841ZM87.4236 45.6081H90.0156C90.0956 45.6081 90.1356 45.5681 90.1356 45.4881V44.5641C90.1356 43.8761 89.7996 43.5321 89.1276 43.5321H88.3116C87.6396 43.5321 87.3036 43.8761 87.3036 44.5641V45.4881C87.3036 45.5681 87.3436 45.6081 87.4236 45.6081ZM95.3339 48.8841H94.7939C94.6819 48.8841 94.6259 48.8281 94.6259 48.7161V42.9321C94.6259 42.8201 94.6819 42.7641 94.7939 42.7641H95.3339C95.4459 42.7641 95.5019 42.8201 95.5019 42.9321V43.4001H95.5499C95.7499 42.9761 96.1579 42.7641 96.7739 42.7641H97.4459C97.9899 42.7641 98.4139 42.9201 98.7179 43.2321C99.0219 43.5441 99.1739 43.9801 99.1739 44.5401V48.7161C99.1739 48.8281 99.1179 48.8841 99.0059 48.8841H98.4659C98.3539 48.8841 98.2979 48.8281 98.2979 48.7161V44.5761C98.2979 43.8801 97.9619 43.5321 97.2899 43.5321H96.6179C96.2579 43.5321 95.9819 43.6281 95.7899 43.8201C95.5979 44.0121 95.5019 44.2841 95.5019 44.6361V48.7161C95.5019 48.8281 95.4459 48.8841 95.3339 48.8841ZM106.491 48.2841V48.7281C106.491 48.8321 106.435 48.8841 106.323 48.8841H104.583C104.031 48.8841 103.595 48.7281 103.275 48.4161C102.963 48.1041 102.807 47.6681 102.807 47.1081V44.5401C102.807 43.9801 102.963 43.5441 103.275 43.2321C103.595 42.9201 104.031 42.7641 104.583 42.7641H106.323C106.435 42.7641 106.491 42.8201 106.491 42.9321V43.3761C106.491 43.4801 106.435 43.5321 106.323 43.5321H104.679C104.015 43.5321 103.683 43.8801 103.683 44.5761V47.0721C103.683 47.7681 104.015 48.1161 104.679 48.1161H106.323C106.435 48.1161 106.491 48.1721 106.491 48.2841ZM114.079 48.8841H111.535C110.983 48.8841 110.547 48.7281 110.227 48.4161C109.915 48.1041 109.759 47.6681 109.759 47.1081V44.5401C109.759 43.9801 109.915 43.5441 110.227 43.2321C110.547 42.9201 110.983 42.7641 111.535 42.7641H112.543C113.095 42.7641 113.527 42.9201 113.839 43.2321C114.151 43.5441 114.307 43.9801 114.307 44.5401V46.0641C114.307 46.1841 114.251 46.2441 114.139 46.2441H110.743C110.663 46.2441 110.623 46.2801 110.623 46.3521V47.0841C110.623 47.7801 110.959 48.1281 111.631 48.1281H114.079C114.191 48.1281 114.247 48.1841 114.247 48.2961V48.7281C114.247 48.8321 114.191 48.8841 114.079 48.8841ZM110.743 45.6081H113.335C113.415 45.6081 113.455 45.5681 113.455 45.4881V44.5641C113.455 43.8761 113.119 43.5321 112.447 43.5321H111.631C110.959 43.5321 110.623 43.8761 110.623 44.5641V45.4881C110.623 45.5681 110.663 45.6081 110.743 45.6081Z" fill="#808080"/>
</svg>
