<svg width="80" height="80" viewBox="0 0 80 80" fill="none" xmlns="http://www.w3.org/2000/svg">
<path d="M24.3601 0V15.3094H29.3754V0H24.3601Z" fill="#6FC7EC"/>
<rect width="15.046" height="5.10312" transform="matrix(1 0 0 -1 0 29.8897)" fill="#6FC7EC"/>
<path fill-rule="evenodd" clip-rule="evenodd" d="M5.73181 22.3318H17.0163V27.5204H17.0173C17.0418 29.2407 17.4923 30.9234 18.3224 32.4124H5.73181V37.5444H26.9511H26.9638H27.0469V37.544C27.6653 37.5383 28.2846 37.4735 28.8968 37.3489C30.8252 36.9564 32.5965 35.9876 33.9868 34.565C35.3771 33.1424 36.3239 31.3299 36.7075 29.3566C36.8256 28.7489 36.8887 28.1343 36.8974 27.5204H36.8985V27.3838V27.3606V5.83214H31.8831V18.5364C30.4119 17.6776 28.7474 17.2159 27.0469 17.2003V17.1999H22.0316V5.83214H17.0163V17.1999H5.73181V22.3318ZM26.9574 22.3318C27.9316 22.3318 28.8839 22.6274 29.694 23.1813C30.504 23.7351 31.1354 24.5223 31.5082 25.4433C31.7562 26.056 31.8824 26.7097 31.8831 27.3665V27.3778C31.8828 27.7045 31.8514 28.0319 31.7885 28.3554C31.5984 29.3332 31.1293 30.2313 30.4404 30.9362C29.7515 31.6411 28.8739 32.1211 27.9183 32.3156C26.9628 32.5101 25.9724 32.4103 25.0724 32.0288C24.1723 31.6473 23.403 31.0012 22.8618 30.1724C22.3205 29.3435 22.0316 28.369 22.0316 27.3721L22.0316 22.3318L26.9574 22.3318Z" fill="#145C7B"/>
<path d="M79.033 24.7866H63.987V29.8897H79.033V24.7866Z" fill="#6FC7EC"/>
<rect width="15.3094" height="5.01532" transform="matrix(0 1 1 0 49.6575 0)" fill="#6FC7EC"/>
<path fill-rule="evenodd" clip-rule="evenodd" d="M57.0853 5.83214V17.3142H52.1317H51.986V17.3152C50.2953 17.3402 48.6416 17.7985 47.1782 18.6432V5.83214H42.1345V27.4184V27.4403V27.5204H42.1349C42.1405 28.1495 42.2041 28.7797 42.3266 29.4026C42.7123 31.3648 43.6645 33.1671 45.0626 34.5817C46.4608 35.9964 48.2421 36.9597 50.1814 37.35C50.7787 37.4702 51.3827 37.5344 51.986 37.5433V37.5444H52.1208H52.1425H73.3011V32.4413H60.8155C61.6595 30.9443 62.1132 29.2506 62.1286 27.5204H62.129V27.4337C62.129 27.4322 62.129 27.4307 62.129 27.4293L62.129 22.4173H73.3011V17.3142H62.129V5.83214H57.0853ZM57.0853 27.4293C57.0853 28.4206 56.7948 29.3896 56.2505 30.2138C55.7062 31.038 54.9326 31.6804 54.0274 32.0598C53.4256 32.312 52.7837 32.4404 52.1386 32.4413H52.1248C51.8042 32.4408 51.4828 32.4089 51.1653 32.345C50.2044 32.1516 49.3218 31.6742 48.629 30.9733C47.9363 30.2724 47.4645 29.3793 47.2733 28.4071C47.2103 28.0863 47.1787 27.7617 47.1782 27.4378V27.4208C47.1792 26.7686 47.3061 26.1197 47.5552 25.5113C47.9301 24.5954 48.5651 23.8127 49.3797 23.262C50.1943 22.7112 51.152 22.4173 52.1317 22.4173H57.0853L57.0853 27.4293Z" fill="#145C7B"/>
<path d="M24.3601 80V64.6906H29.3754V80H24.3601Z" fill="#6FC7EC"/>
<rect y="50.1103" width="15.046" height="5.10312" fill="#6FC7EC"/>
<path fill-rule="evenodd" clip-rule="evenodd" d="M5.73181 57.6682H17.0163V52.4796H17.0173C17.0418 50.7593 17.4923 49.0766 18.3224 47.5876H5.73181V42.4556H26.9497H26.9652H27.0469V42.456C27.6653 42.4617 28.2846 42.5265 28.8968 42.6511C30.8252 43.0436 32.5965 44.0124 33.9868 45.435C35.3771 46.8576 36.3239 48.6701 36.7075 50.6434C36.8256 51.2511 36.8887 51.8657 36.8974 52.4796H36.8985V52.6181V52.6375V74.1679H31.8831V61.4636C30.4119 62.3224 28.7474 62.7841 27.0469 62.7997V62.8001H22.0316V74.1679H17.0163V62.8001H5.73181V57.6682ZM26.9574 57.6682C27.9316 57.6682 28.8839 57.3726 29.694 56.8187C30.504 56.2649 31.1354 55.4777 31.5082 54.5567C31.7569 53.9422 31.8831 53.2866 31.8831 52.6278C31.8831 52.2993 31.8517 51.9699 31.7885 51.6446C31.5984 50.6668 31.1293 49.7687 30.4404 49.0638C29.7515 48.3589 28.8738 47.8789 27.9183 47.6844C26.9628 47.4899 25.9724 47.5897 25.0724 47.9712C24.1723 48.3527 23.403 48.9988 22.8618 49.8276C22.3205 50.6565 22.0316 51.631 22.0316 52.6279V57.6682L26.9574 57.6682Z" fill="#145C7B"/>
<path d="M79.033 55.2134H63.987V50.1103H79.033V55.2134Z" fill="#6FC7EC"/>
<rect x="49.6575" y="80" width="15.3094" height="5.01532" transform="rotate(-90 49.6575 80)" fill="#6FC7EC"/>
<path fill-rule="evenodd" clip-rule="evenodd" d="M57.0853 74.1679V62.6858L52.1317 62.6858L51.986 62.6858V62.6848C50.2953 62.6598 48.6416 62.2015 47.1782 61.3568V74.1679H42.1345V52.5816V52.5597V52.4796H42.1349C42.1405 51.8505 42.2041 51.2203 42.3266 50.5974C42.7123 48.6352 43.6645 46.8329 45.0626 45.4183C46.4608 44.0036 48.2421 43.0403 50.1814 42.65C50.7787 42.5298 51.3827 42.4656 51.986 42.4567V42.4556H52.1227H52.1406H73.3011V47.5587H60.8155C61.6595 49.0557 62.1132 50.7494 62.1286 52.4796H62.129V52.5663C62.129 52.5678 62.129 52.5693 62.129 52.5707L62.129 57.5827H73.3011V62.6858H62.129V74.1679H57.0853ZM57.0853 52.5707C57.0853 51.5794 56.7948 50.6104 56.2505 49.7862C55.7062 48.962 54.9326 48.3196 54.0274 47.9403C53.4247 47.6877 52.7817 47.5593 52.1357 47.5587H52.1278C51.8062 47.559 51.4838 47.5909 51.1653 47.655C50.2044 47.8484 49.3218 48.3258 48.629 49.0267C47.9363 49.7277 47.4645 50.6207 47.2733 51.5929C47.2103 51.9137 47.1787 52.2383 47.1782 52.5622V52.5792C47.1792 53.2314 47.3061 53.8803 47.5552 54.4887C47.9301 55.4046 48.5651 56.1873 49.3797 56.738C50.1931 57.288 51.1492 57.5819 52.1274 57.5827C52.1289 57.5827 52.1303 57.5827 52.1317 57.5827L57.0853 57.5827L57.0853 52.5707Z" fill="#145C7B"/>
</svg>
