<svg width="117" height="90" viewBox="0 0 117 90" fill="none" xmlns="http://www.w3.org/2000/svg">
<path d="M39.6246 0V15.6921H44.5773V0H39.6246Z" fill="white"/>
<rect width="14.8579" height="5.2307" transform="matrix(1 0 0 -1 15.569 30.6369)" fill="white"/>
<path fill-rule="evenodd" clip-rule="evenodd" d="M21.2291 22.8901H32.3725V28.2084H32.3736C32.3978 29.9717 32.8426 31.6964 33.6624 33.2227H21.2291V38.483H42.1826H42.1963H42.2778V38.4826C42.8884 38.4767 43.5 38.4104 44.1045 38.2826C46.0088 37.8803 47.758 36.8873 49.1309 35.4291C50.5038 33.9709 51.4388 32.1131 51.8176 30.0905C51.9342 29.4676 51.9965 28.8376 52.0052 28.2084H52.0062V28.064V28.049V5.97794H47.0536V18.9998C45.6008 18.1196 43.957 17.6463 42.2778 17.6303V17.6299L42.1894 17.6299L37.3252 17.6299V5.97794H32.3725V17.6299H21.2291V22.8901ZM42.1894 22.8901C43.1514 22.8901 44.0919 23.1931 44.8918 23.7608C45.6917 24.3285 46.3151 25.1353 46.6833 26.0794C46.9289 26.7092 47.0536 27.3813 47.0536 28.0565C47.0536 28.3932 47.0226 28.7308 46.9601 29.0643C46.7724 30.0665 46.3091 30.987 45.6289 31.7096C44.9486 32.4321 44.0819 32.9241 43.1383 33.1235C42.1948 33.3228 41.2167 33.2205 40.3279 32.8295C39.4391 32.4385 38.6794 31.7763 38.1449 30.9267C37.6105 30.0771 37.3252 29.0782 37.3252 28.0564L37.3252 22.8901H42.1894Z" fill="#808080"/>
<path d="M94.614 25.4062H79.7561V30.6369H94.614V25.4062Z" fill="white"/>
<rect width="15.6921" height="4.95263" transform="matrix(0 1 1 0 65.6057 0)" fill="white"/>
<path fill-rule="evenodd" clip-rule="evenodd" d="M58.1768 28.2084V28.1224V28.1077V5.97794H63.1574V19.1093C64.6026 18.2435 66.2356 17.7737 67.9052 17.7481V17.747H68.0491H72.9407V5.97794H77.9214V17.747H88.9539V22.9777H77.9214L77.9214 28.115C77.9214 28.1193 77.9214 28.1236 77.9214 28.1279V28.2084H77.921C77.9058 29.9819 77.4577 31.7179 76.6243 33.2523H88.9539V38.483H68.0582H68.0398H67.9052V38.4819C67.3094 38.4728 66.7129 38.407 66.1231 38.2838C64.2081 37.8837 62.449 36.8963 61.0683 35.4463C59.6877 33.9963 58.7474 32.1489 58.3665 30.1377C58.2456 29.4992 58.1827 28.8533 58.1772 28.2084H58.1768ZM72.9407 28.1229C72.9393 29.1362 72.6525 30.1265 72.1164 30.9691C71.5788 31.814 70.8149 32.4724 69.921 32.8612C69.3264 33.1199 68.6921 33.2515 68.0546 33.2523H68.0434C67.7264 33.2519 67.4087 33.2192 67.0948 33.1536C66.1459 32.9554 65.2743 32.4661 64.5901 31.7476C63.906 31.0292 63.4401 30.1138 63.2514 29.1172C63.189 28.7877 63.1578 28.4542 63.1574 28.1214V28.1087C63.1582 27.4394 63.2835 26.7734 63.5298 26.149C63.9 25.2103 64.527 24.408 65.3314 23.8435C66.1358 23.279 67.0816 22.9777 68.0491 22.9777H72.9407V28.1229Z" fill="#808080"/>
<path d="M39.6246 90V74.3079H44.5773V90H39.6246Z" fill="white"/>
<rect x="15.569" y="59.3631" width="14.8579" height="5.2307" fill="white"/>
<path fill-rule="evenodd" clip-rule="evenodd" d="M21.2291 67.1099H32.3725V61.7916H32.3736C32.3978 60.0283 32.8426 58.3035 33.6624 56.7773H21.2291V51.517H42.1797H42.1992H42.2778V51.5174C42.8884 51.5233 43.5 51.5896 44.1045 51.7173C46.0088 52.1197 47.758 53.1127 49.1309 54.5709C50.5038 56.0291 51.4388 57.8869 51.8176 59.9094C51.9342 60.5324 51.9965 61.1624 52.0052 61.7916H52.0062V61.936V61.951V84.0221H47.0536V71.0002C45.6008 71.8804 43.957 72.3537 42.2778 72.3697V72.3701H42.1894H37.3252V84.0221H32.3725V72.3701H21.2291V67.1099ZM42.1894 67.1099C43.1514 67.1099 44.0919 66.8069 44.8918 66.2392C45.6917 65.6715 46.3151 64.8647 46.6833 63.9206C46.9289 63.2908 47.0536 62.6187 47.0536 61.9435C47.0536 61.6068 47.0226 61.2692 46.9601 60.9357C46.7724 59.9335 46.3091 59.013 45.6289 58.2904C44.9486 57.5679 44.0819 57.0759 43.1383 56.8765C42.8259 56.8105 42.5097 56.7776 42.1943 56.7773H42.1845C41.5505 56.7779 40.9194 56.9103 40.3279 57.1705C39.4391 57.5615 38.6794 58.2237 38.1449 59.0733C37.6105 59.9229 37.3252 60.9218 37.3252 61.9436L37.3252 67.1099L42.1894 67.1099Z" fill="#808080"/>
<path d="M94.614 64.5938H79.7561V59.3631H94.614V64.5938Z" fill="white"/>
<rect x="65.6057" y="90" width="15.6921" height="4.95263" transform="rotate(-90 65.6057 90)" fill="white"/>
<path fill-rule="evenodd" clip-rule="evenodd" d="M58.1768 61.7916V61.8776V61.8923V84.0221H63.1574V70.8907C64.6026 71.7565 66.2356 72.2263 67.9052 72.2519V72.253H68.0491H72.9407V84.0221H77.9214V72.253H88.9539V67.0223H77.9214L77.9214 61.885C77.9214 61.8807 77.9214 61.8764 77.9214 61.8721V61.7916H77.921C77.9058 60.0181 77.4577 58.2821 76.6243 56.7477H88.9539V51.517H68.0582H68.0398H67.9052V51.5181C67.3094 51.5272 66.7129 51.593 66.1231 51.7162C64.2081 52.1163 62.449 53.1037 61.0683 54.5537C59.6877 56.0037 58.7474 57.8511 58.3665 59.8623C58.2456 60.5008 58.1827 61.1467 58.1772 61.7916H58.1768ZM72.9407 61.8771C72.9393 60.8638 72.6525 59.8735 72.1164 59.0309C71.5788 58.186 70.8149 57.5276 69.921 57.1388C69.3256 56.8797 68.6904 56.7481 68.0521 56.7477H68.0459C67.7281 56.7479 67.4095 56.7807 67.0948 56.8464C66.1459 57.0446 65.2743 57.5339 64.5901 58.2524C63.906 58.9708 63.4401 59.8862 63.2514 60.8828C63.189 61.2123 63.1578 61.5458 63.1574 61.8786V61.8913C63.1582 62.5606 63.2835 63.2266 63.5298 63.851C63.9 64.7897 64.527 65.592 65.3314 66.1565C66.1347 66.7202 67.0788 67.0214 68.0449 67.0223C68.0463 67.0223 68.0477 67.0223 68.0491 67.0223L72.9407 67.0223V61.8771Z" fill="#808080"/>
<path d="M4.02309 48.8841H3.17109C3.06709 48.8841 2.99909 48.8281 2.96709 48.7161L0.843088 41.3481C0.819088 41.2281 0.871088 41.1681 0.999088 41.1681H1.58709C1.69109 41.1681 1.75509 41.2241 1.77909 41.3361L3.56709 47.9001H3.61509L5.40309 41.3361C5.42709 41.2241 5.49109 41.1681 5.59509 41.1681H6.19509C6.31509 41.1681 6.36309 41.2281 6.33909 41.3481L4.21509 48.7161C4.18309 48.8281 4.11909 48.8841 4.02309 48.8841ZM9.6734 41.7561V40.6281C9.6734 40.5161 9.7254 40.4601 9.8294 40.4601H10.3814C10.4934 40.4601 10.5494 40.5161 10.5494 40.6281V41.7561C10.5494 41.8681 10.4934 41.9241 10.3814 41.9241H9.8294C9.7254 41.9241 9.6734 41.8681 9.6734 41.7561ZM9.6734 48.7161V42.9321C9.6734 42.8201 9.7254 42.7641 9.8294 42.7641H10.3814C10.4934 42.7641 10.5494 42.8201 10.5494 42.9321V48.7161C10.5494 48.8281 10.4934 48.8841 10.3814 48.8841H9.8414C9.7294 48.8841 9.6734 48.8281 9.6734 48.7161ZM15.1298 48.8841H14.5898C14.4778 48.8841 14.4218 48.8281 14.4218 48.7161V42.9321C14.4218 42.8201 14.4778 42.7641 14.5898 42.7641H15.1298C15.2418 42.7641 15.2978 42.8201 15.2978 42.9321V43.4121H15.3458C15.4258 43.2361 15.5778 43.0841 15.8018 42.9561C16.0258 42.8281 16.2898 42.7641 16.5938 42.7641H17.0618C17.1658 42.7641 17.2178 42.8201 17.2178 42.9321V43.3761C17.2178 43.4321 17.2058 43.4761 17.1818 43.5081C17.1578 43.5321 17.1178 43.5401 17.0618 43.5321H16.4138C16.0538 43.5321 15.7778 43.6401 15.5858 43.8561C15.3938 44.0721 15.2978 44.3681 15.2978 44.7441V48.7161C15.2978 48.8281 15.2418 48.8841 15.1298 48.8841ZM20.6887 43.5321H20.0287C19.9167 43.5321 19.8607 43.4801 19.8607 43.3761V42.9321C19.8607 42.8201 19.9167 42.7641 20.0287 42.7641H20.6887C20.7687 42.7641 20.8087 42.7281 20.8087 42.6561V41.6241C20.8087 41.5121 20.8647 41.4561 20.9767 41.4561H21.5167C21.6207 41.4561 21.6727 41.5121 21.6727 41.6241V42.6561C21.6727 42.7281 21.7167 42.7641 21.8047 42.7641H23.0767C23.1967 42.7641 23.2567 42.8201 23.2567 42.9321V43.3761C23.2567 43.4801 23.1967 43.5321 23.0767 43.5321H21.8047C21.7167 43.5321 21.6727 43.5681 21.6727 43.6401V47.0961C21.6727 47.7761 22.0247 48.1161 22.7287 48.1161H23.1967C23.3167 48.1161 23.3767 48.1721 23.3767 48.2841V48.7281C23.3767 48.8321 23.3167 48.8841 23.1967 48.8841H22.6207C22.0687 48.8841 21.6287 48.7321 21.3007 48.4281C20.9727 48.1161 20.8087 47.6841 20.8087 47.1321V43.6401C20.8087 43.5681 20.7687 43.5321 20.6887 43.5321ZM29.1443 48.8841H28.4723C27.9283 48.8841 27.5043 48.7281 27.2003 48.4161C26.8963 48.1041 26.7443 47.6681 26.7443 47.1081V42.9321C26.7443 42.8201 26.8003 42.7641 26.9123 42.7641H27.4523C27.5643 42.7641 27.6203 42.8201 27.6203 42.9321V47.0721C27.6203 47.7681 27.9523 48.1161 28.6163 48.1161H29.3003C29.6603 48.1161 29.9363 48.0201 30.1283 47.8281C30.3203 47.6361 30.4163 47.3641 30.4163 47.0121V42.9321C30.4163 42.8201 30.4723 42.7641 30.5843 42.7641H31.1243C31.2363 42.7641 31.2923 42.8201 31.2923 42.9321V48.7161C31.2923 48.8281 31.2363 48.8841 31.1243 48.8841H30.5843C30.4723 48.8841 30.4163 48.8281 30.4163 48.7161V48.2481H30.3683C30.1683 48.6721 29.7603 48.8841 29.1443 48.8841ZM37.385 48.8841H36.761C36.209 48.8841 35.773 48.7281 35.453 48.4161C35.141 48.1041 34.985 47.6681 34.985 47.1081V44.5401C34.985 43.9801 35.141 43.5441 35.453 43.2321C35.773 42.9201 36.209 42.7641 36.761 42.7641H39.365C39.477 42.7641 39.533 42.8201 39.533 42.9321V48.7161C39.533 48.8281 39.477 48.8841 39.365 48.8841H38.825C38.713 48.8841 38.657 48.8281 38.657 48.7161V48.2481H38.609C38.409 48.6721 38.001 48.8841 37.385 48.8841ZM38.657 47.0121V43.6401C38.657 43.5681 38.617 43.5321 38.537 43.5321H36.857C36.193 43.5321 35.861 43.8801 35.861 44.5761V47.0721C35.861 47.7681 36.193 48.1161 36.857 48.1161H37.541C37.901 48.1161 38.177 48.0201 38.369 47.8281C38.561 47.6361 38.657 47.3641 38.657 47.0121ZM44.115 48.8841H43.575C43.463 48.8841 43.407 48.8281 43.407 48.7161V40.6161C43.407 40.5041 43.463 40.4481 43.575 40.4481H44.115C44.227 40.4481 44.283 40.5041 44.283 40.6161V48.7161C44.283 48.8281 44.227 48.8841 44.115 48.8841ZM57.4183 48.8841H53.6503C53.5383 48.8841 53.4823 48.8281 53.4823 48.7161V41.3361C53.4823 41.2241 53.5383 41.1681 53.6503 41.1681H57.4183C57.5303 41.1681 57.5863 41.2241 57.5863 41.3361V41.7681C57.5863 41.8801 57.5303 41.9361 57.4183 41.9361H54.4783C54.3983 41.9361 54.3583 41.9721 54.3583 42.0441V44.4681C54.3583 44.5401 54.3983 44.5761 54.4783 44.5761H57.0463C57.1583 44.5761 57.2143 44.6321 57.2143 44.7441V45.1761C57.2143 45.2881 57.1583 45.3441 57.0463 45.3441H54.4783C54.3983 45.3441 54.3583 45.3801 54.3583 45.4521V48.0081C54.3583 48.0801 54.3983 48.1161 54.4783 48.1161H57.4183C57.5303 48.1161 57.5863 48.1721 57.5863 48.2841V48.7161C57.5863 48.8281 57.5303 48.8841 57.4183 48.8841ZM61.5279 48.8841H60.8559C60.7279 48.8841 60.6959 48.8281 60.7599 48.7161L62.4399 45.7641L60.8199 42.9321C60.7559 42.8201 60.7839 42.7641 60.9039 42.7641H61.5759C61.6799 42.7641 61.7639 42.8201 61.8279 42.9321L63.0039 45.2001H63.0519L64.1679 42.9321C64.2239 42.8201 64.3079 42.7641 64.4199 42.7641H65.0799C65.2159 42.7641 65.2439 42.8201 65.1639 42.9321L63.5919 45.7521L65.2959 48.7161C65.3679 48.8281 65.3399 48.8841 65.2119 48.8841H64.5159C64.4279 48.8841 64.3519 48.8281 64.2879 48.7161L63.0519 46.3521H63.0039L61.7679 48.7161C61.7199 48.8281 61.6399 48.8841 61.5279 48.8841ZM68.629 41.7561V40.6281C68.629 40.5161 68.681 40.4601 68.785 40.4601H69.337C69.449 40.4601 69.505 40.5161 69.505 40.6281V41.7561C69.505 41.8681 69.449 41.9241 69.337 41.9241H68.785C68.681 41.9241 68.629 41.8681 68.629 41.7561ZM68.629 48.7161V42.9321C68.629 42.8201 68.681 42.7641 68.785 42.7641H69.337C69.449 42.7641 69.505 42.8201 69.505 42.9321V48.7161C69.505 48.8281 69.449 48.8841 69.337 48.8841H68.797C68.685 48.8841 68.629 48.8281 68.629 48.7161ZM75.4535 48.8841H73.3175C73.2055 48.8841 73.1495 48.8281 73.1495 48.7161V48.2961C73.1495 48.1921 73.2055 48.1401 73.3175 48.1401H75.3335C75.9575 48.1401 76.2695 47.9081 76.2695 47.4441V47.2161C76.2695 46.7921 76.0655 46.5001 75.6575 46.3401L74.2415 45.7401C73.8335 45.5721 73.5415 45.3761 73.3655 45.1521C73.1895 44.9201 73.1015 44.6161 73.1015 44.2401C73.1015 43.2561 73.6415 42.7641 74.7215 42.7641H76.6895C76.8015 42.7641 76.8575 42.8201 76.8575 42.9321V43.3521C76.8575 43.4561 76.8015 43.5081 76.6895 43.5081H74.8775C74.5895 43.5081 74.3695 43.5681 74.2175 43.6881C74.0735 43.8081 74.0015 43.9481 74.0015 44.1081V44.3121C74.0015 44.6481 74.2295 44.9041 74.6855 45.0801L76.1015 45.7161C76.5175 45.8761 76.7975 46.0881 76.9415 46.3521C77.0935 46.6161 77.1695 46.9801 77.1695 47.4441C77.1695 48.4041 76.5975 48.8841 75.4535 48.8841ZM80.9569 43.5321H80.2969C80.1849 43.5321 80.1289 43.4801 80.1289 43.3761V42.9321C80.1289 42.8201 80.1849 42.7641 80.2969 42.7641H80.9569C81.0369 42.7641 81.0769 42.7281 81.0769 42.6561V41.6241C81.0769 41.5121 81.1329 41.4561 81.2449 41.4561H81.7849C81.8889 41.4561 81.9409 41.5121 81.9409 41.6241V42.6561C81.9409 42.7281 81.9849 42.7641 82.0729 42.7641H83.3449C83.4649 42.7641 83.5249 42.8201 83.5249 42.9321V43.3761C83.5249 43.4801 83.4649 43.5321 83.3449 43.5321H82.0729C81.9849 43.5321 81.9409 43.5681 81.9409 43.6401V47.0961C81.9409 47.7761 82.2929 48.1161 82.9969 48.1161H83.4649C83.5849 48.1161 83.6449 48.1721 83.6449 48.2841V48.7281C83.6449 48.8321 83.5849 48.8841 83.4649 48.8841H82.8889C82.3369 48.8841 81.8969 48.7321 81.5689 48.4281C81.2409 48.1161 81.0769 47.6841 81.0769 47.1321V43.6401C81.0769 43.5681 81.0369 43.5321 80.9569 43.5321ZM91.2725 48.8841H88.7285C88.1765 48.8841 87.7405 48.7281 87.4205 48.4161C87.1085 48.1041 86.9525 47.6681 86.9525 47.1081V44.5401C86.9525 43.9801 87.1085 43.5441 87.4205 43.2321C87.7405 42.9201 88.1765 42.7641 88.7285 42.7641H89.7365C90.2885 42.7641 90.7205 42.9201 91.0325 43.2321C91.3445 43.5441 91.5005 43.9801 91.5005 44.5401V46.0641C91.5005 46.1841 91.4445 46.2441 91.3325 46.2441H87.9365C87.8565 46.2441 87.8165 46.2801 87.8165 46.3521V47.0841C87.8165 47.7801 88.1525 48.1281 88.8245 48.1281H91.2725C91.3845 48.1281 91.4405 48.1841 91.4405 48.2961V48.7281C91.4405 48.8321 91.3845 48.8841 91.2725 48.8841ZM87.9365 45.6081H90.5285C90.6085 45.6081 90.6485 45.5681 90.6485 45.4881V44.5641C90.6485 43.8761 90.3125 43.5321 89.6405 43.5321H88.8245C88.1525 43.5321 87.8165 43.8761 87.8165 44.5641V45.4881C87.8165 45.5681 87.8565 45.6081 87.9365 45.6081ZM95.8467 48.8841H95.3067C95.1947 48.8841 95.1387 48.8281 95.1387 48.7161V42.9321C95.1387 42.8201 95.1947 42.7641 95.3067 42.7641H95.8467C95.9587 42.7641 96.0147 42.8201 96.0147 42.9321V43.4001H96.0627C96.2627 42.9761 96.6707 42.7641 97.2867 42.7641H97.9587C98.5027 42.7641 98.9267 42.9201 99.2307 43.2321C99.5347 43.5441 99.6867 43.9801 99.6867 44.5401V48.7161C99.6867 48.8281 99.6307 48.8841 99.5187 48.8841H98.9787C98.8667 48.8841 98.8107 48.8281 98.8107 48.7161V44.5761C98.8107 43.8801 98.4747 43.5321 97.8027 43.5321H97.1307C96.7707 43.5321 96.4947 43.6281 96.3027 43.8201C96.1107 44.0121 96.0147 44.2841 96.0147 44.6361V48.7161C96.0147 48.8281 95.9587 48.8841 95.8467 48.8841ZM107.003 48.2841V48.7281C107.003 48.8321 106.947 48.8841 106.835 48.8841H105.095C104.543 48.8841 104.107 48.7281 103.787 48.4161C103.475 48.1041 103.319 47.6681 103.319 47.1081V44.5401C103.319 43.9801 103.475 43.5441 103.787 43.2321C104.107 42.9201 104.543 42.7641 105.095 42.7641H106.835C106.947 42.7641 107.003 42.8201 107.003 42.9321V43.3761C107.003 43.4801 106.947 43.5321 106.835 43.5321H105.191C104.527 43.5321 104.195 43.8801 104.195 44.5761V47.0721C104.195 47.7681 104.527 48.1161 105.191 48.1161H106.835C106.947 48.1161 107.003 48.1721 107.003 48.2841ZM114.592 48.8841H112.048C111.496 48.8841 111.06 48.7281 110.74 48.4161C110.428 48.1041 110.272 47.6681 110.272 47.1081V44.5401C110.272 43.9801 110.428 43.5441 110.74 43.2321C111.06 42.9201 111.496 42.7641 112.048 42.7641H113.056C113.608 42.7641 114.04 42.9201 114.352 43.2321C114.664 43.5441 114.82 43.9801 114.82 44.5401V46.0641C114.82 46.1841 114.764 46.2441 114.652 46.2441H111.256C111.176 46.2441 111.136 46.2801 111.136 46.3521V47.0841C111.136 47.7801 111.472 48.1281 112.144 48.1281H114.592C114.704 48.1281 114.76 48.1841 114.76 48.2961V48.7281C114.76 48.8321 114.704 48.8841 114.592 48.8841ZM111.256 45.6081H113.848C113.928 45.6081 113.968 45.5681 113.968 45.4881V44.5641C113.968 43.8761 113.632 43.5321 112.96 43.5321H112.144C111.472 43.5321 111.136 43.8761 111.136 44.5641V45.4881C111.136 45.5681 111.176 45.6081 111.256 45.6081Z" fill="white"/>
</svg>
