<svg width="81" height="80" viewBox="0 0 81 80" fill="none" xmlns="http://www.w3.org/2000/svg">
<path d="M24.8729 0V15.3094H29.8882V0H24.8729Z" fill="white"/>
<rect width="15.046" height="5.10312" transform="matrix(1 0 0 -1 0.512817 29.8897)" fill="white"/>
<path fill-rule="evenodd" clip-rule="evenodd" d="M6.24463 22.3318H17.5291V27.5204H17.5302C17.5547 29.2407 18.0051 30.9234 18.8353 32.4124H6.24463V37.5444H27.4639H27.4766H27.5598V37.544C28.1781 37.5383 28.7974 37.4735 29.4096 37.3489C31.338 36.9564 33.1093 35.9876 34.4996 34.565C35.8899 33.1424 36.8367 31.3299 37.2203 29.3566C37.3384 28.7489 37.4015 28.1343 37.4102 27.5204H37.4113V27.3838V27.3606V5.83214H32.396V18.5364C30.9248 17.6776 29.2602 17.2159 27.5598 17.2003V17.1999H22.5444V5.83214H17.5291V17.1999H6.24463V22.3318ZM27.4702 22.3318C28.4444 22.3318 29.3968 22.6274 30.2068 23.1813C31.0168 23.7351 31.6482 24.5223 32.021 25.4433C32.269 26.056 32.3952 26.7097 32.396 27.3665V27.3778C32.3956 27.7045 32.3642 28.0319 32.3013 28.3554C32.1113 29.3332 31.6421 30.2313 30.9532 30.9362C30.2644 31.6411 29.3867 32.1211 28.4312 32.3156C27.4757 32.5101 26.4853 32.4103 25.5852 32.0288C24.6851 31.6473 23.9158 31.0012 23.3746 30.1724C22.8333 29.3435 22.5444 28.369 22.5444 27.3721L22.5444 22.3318L27.4702 22.3318Z" fill="#808080"/>
<path d="M79.5458 24.7866H64.4998V29.8897H79.5458V24.7866Z" fill="white"/>
<rect width="15.3094" height="5.01532" transform="matrix(0 1 1 0 50.1703 0)" fill="white"/>
<path fill-rule="evenodd" clip-rule="evenodd" d="M57.5982 5.83214V17.3142H52.6446H52.4988V17.3152C50.8082 17.3402 49.1544 17.7985 47.691 18.6432V5.83214H42.6473V27.4184V27.4403V27.5204H42.6477C42.6533 28.1495 42.7169 28.7797 42.8394 29.4026C43.2252 31.3648 44.1773 33.1671 45.5754 34.5817C46.9736 35.9964 48.7549 36.9597 50.6942 37.35C51.2915 37.4702 51.8955 37.5344 52.4988 37.5433V37.5444H52.6336H52.6553H73.814V32.4413H61.3283C62.1723 30.9443 62.626 29.2506 62.6414 27.5204H62.6418V27.4337C62.6418 27.4322 62.6418 27.4307 62.6418 27.4293L62.6418 22.4173H73.814V17.3142H62.6418V5.83214H57.5982ZM57.5982 27.4293C57.5982 28.4206 57.3076 29.3896 56.7633 30.2138C56.219 31.038 55.4454 31.6804 54.5402 32.0598C53.9385 32.312 53.2965 32.4404 52.6515 32.4413H52.6376C52.317 32.4408 51.9957 32.4089 51.6782 32.345C50.7173 32.1516 49.8346 31.6742 49.1418 30.9733C48.4491 30.2724 47.9773 29.3793 47.7861 28.4071C47.7231 28.0863 47.6915 27.7617 47.691 27.4378V27.4208C47.6921 26.7686 47.819 26.1197 48.068 25.5113C48.443 24.5954 49.0779 23.8127 49.8925 23.262C50.7071 22.7112 51.6648 22.4173 52.6446 22.4173H57.5982L57.5982 27.4293Z" fill="#808080"/>
<path d="M24.8729 80V64.6906H29.8882V80H24.8729Z" fill="white"/>
<rect x="0.512817" y="50.1103" width="15.046" height="5.10312" fill="white"/>
<path fill-rule="evenodd" clip-rule="evenodd" d="M6.24463 57.6682H17.5291V52.4796H17.5302C17.5547 50.7593 18.0051 49.0766 18.8353 47.5876H6.24463V42.4556H27.4626H27.478H27.5598V42.456C28.1781 42.4617 28.7974 42.5265 29.4096 42.6511C31.338 43.0436 33.1093 44.0124 34.4996 45.435C35.8899 46.8576 36.8367 48.6701 37.2203 50.6434C37.3384 51.2511 37.4015 51.8657 37.4102 52.4796H37.4113V52.6181V52.6375V74.1679H32.396V61.4636C30.9248 62.3224 29.2602 62.7841 27.5598 62.7997V62.8001H22.5444V74.1679H17.5291V62.8001H6.24463V57.6682ZM27.4702 57.6682C28.4444 57.6682 29.3968 57.3726 30.2068 56.8187C31.0168 56.2649 31.6482 55.4777 32.021 54.5567C32.2698 53.9422 32.396 53.2866 32.396 52.6278C32.396 52.2993 32.3646 51.9699 32.3013 51.6446C32.1112 50.6668 31.6421 49.7687 30.9532 49.0638C30.2644 48.3589 29.3867 47.8789 28.4312 47.6844C27.4757 47.4899 26.4853 47.5897 25.5852 47.9712C24.6851 48.3527 23.9158 48.9988 23.3746 49.8276C22.8333 50.6565 22.5444 51.631 22.5444 52.6279V57.6682L27.4702 57.6682Z" fill="#808080"/>
<path d="M79.5458 55.2134H64.4998V50.1103H79.5458V55.2134Z" fill="white"/>
<rect x="50.1703" y="80" width="15.3094" height="5.01532" transform="rotate(-90 50.1703 80)" fill="white"/>
<path fill-rule="evenodd" clip-rule="evenodd" d="M57.5982 74.1679V62.6858L52.6446 62.6858L52.4988 62.6858V62.6848C50.8082 62.6598 49.1544 62.2015 47.691 61.3568V74.1679H42.6473V52.5816V52.5597V52.4796H42.6477C42.6533 51.8505 42.7169 51.2203 42.8394 50.5974C43.2252 48.6352 44.1773 46.8329 45.5754 45.4183C46.9736 44.0036 48.7549 43.0403 50.6942 42.65C51.2915 42.5298 51.8955 42.4656 52.4988 42.4567V42.4556H52.6356H52.6534H73.814V47.5587H61.3283C62.1723 49.0557 62.626 50.7494 62.6414 52.4796H62.6418V52.5663C62.6418 52.5678 62.6418 52.5693 62.6418 52.5707L62.6418 57.5827H73.814V62.6858H62.6418V74.1679H57.5982ZM57.5982 52.5707C57.5982 51.5794 57.3076 50.6104 56.7633 49.7862C56.219 48.962 55.4454 48.3196 54.5402 47.9403C53.9375 47.6877 53.2945 47.5593 52.6485 47.5587H52.6406C52.319 47.559 51.9966 47.5909 51.6782 47.655C50.7173 47.8484 49.8346 48.3258 49.1418 49.0267C48.4491 49.7277 47.9773 50.6207 47.7861 51.5929C47.7231 51.9137 47.6915 52.2383 47.691 52.5622V52.5792C47.6921 53.2314 47.819 53.8803 48.068 54.4887C48.443 55.4046 49.0779 56.1873 49.8925 56.738C50.7059 57.288 51.662 57.5819 52.6402 57.5827C52.6417 57.5827 52.6431 57.5827 52.6446 57.5827L57.5982 57.5827L57.5982 52.5707Z" fill="#808080"/>
</svg>
