<svg width="32" height="32" viewBox="0 0 32 32" fill="none" xmlns="http://www.w3.org/2000/svg">
<path d="M26.6688 16C26.6688 11.5625 23.9563 7.7625 20.1063 6.15625L19.0812 8.61875C21.9687 9.825 24 12.675 24 16C24 19.3312 21.9688 22.175 19.075 23.3813L20.1 25.8438C23.9563 24.2375 26.6688 20.4375 26.6688 16ZM21.3312 16C21.3312 13.7812 19.975 11.8813 18.05 11.0813L17.025 13.5437C17.9875 13.9437 18.6625 14.8938 18.6625 16.0063C18.6625 17.1125 17.9875 18.0625 17.025 18.4688L18.05 20.9312C19.975 20.1187 21.3312 18.2188 21.3312 16ZM22.1562 1.23125L21.125 3.69375C25.9437 5.7 29.3312 10.45 29.3312 16C29.3312 21.5437 25.9437 26.3 21.125 28.3062L22.15 30.7687C27.9375 28.3562 32 22.6562 32 16C32 9.34375 27.9375 3.64375 22.1562 1.23125ZM0 9.33125V22.6625H5.33125L14.6687 32V0L5.33125 9.33125H0Z" fill="#1C1514"/>
</svg>
