<svg width="32" height="32" viewBox="0 0 32 32" fill="none" xmlns="http://www.w3.org/2000/svg">
<path d="M30.2267 6.9344C29.1858 7.40419 28.08 7.71434 26.9467 7.8544C28.1406 7.1364 29.032 6.00784 29.4539 4.68C28.3328 5.3488 27.1063 5.82221 25.8267 6.08C25.2909 5.49922 24.6389 5.03767 23.9131 4.72536C23.1873 4.41304 22.4039 4.25694 21.6139 4.2672C20.1009 4.27228 18.6517 4.87742 17.5844 5.94981C16.5172 7.0222 15.9189 8.47422 15.9211 9.9872C15.9214 10.427 15.9708 10.8655 16.0683 11.2944C13.7947 11.1794 11.5707 10.5882 9.54019 9.55899C7.50967 8.52981 5.71796 7.08564 4.28106 5.32C3.54931 6.57578 3.32528 8.06379 3.65486 9.47937C3.98443 10.8949 4.84268 12.131 6.05386 12.9344C5.14626 12.9235 4.25455 12.6947 3.45386 12.2672V12.3072C3.45397 13.6282 3.91069 14.9086 4.74666 15.9315C5.58264 16.9544 6.74649 17.6569 8.04106 17.92C7.20231 18.1503 6.32143 18.1821 5.46826 18.0128C5.83117 19.1488 6.54055 20.1428 7.49693 20.8553C8.4533 21.5677 9.60869 21.963 10.8011 21.9856C8.77929 23.5868 6.27285 24.4523 3.69386 24.44C3.23933 24.441 2.78515 24.4142 2.33386 24.36C4.94952 26.0441 7.99571 26.9375 11.1067 26.9328C13.2484 26.9464 15.3715 26.5347 17.3529 25.7215C19.3343 24.9083 21.1345 23.7098 22.6492 22.1956C24.1639 20.6813 25.3629 18.8814 26.1767 16.9003C26.9905 14.9191 27.4028 12.7961 27.3899 10.6544C27.3899 10.4016 27.3899 10.1616 27.3771 9.9072C28.5001 9.09814 29.4658 8.09066 30.2267 6.9344Z" fill="white"/>
</svg>
