<svg width="32" height="32" viewBox="0 0 32 32" fill="none" xmlns="http://www.w3.org/2000/svg">
<path d="M13.3333 20L20.2533 16L13.3333 12V20ZM28.7466 9.56001C28.92 10.1867 29.04 11.0267 29.12 12.0933C29.2133 13.16 29.2533 14.08 29.2533 14.88L29.3333 16C29.3333 18.92 29.12 21.0667 28.7466 22.44C28.4133 23.64 27.64 24.4133 26.44 24.7467C25.8133 24.92 24.6666 25.04 22.9066 25.12C21.1733 25.2133 19.5866 25.2533 18.12 25.2533L16 25.3333C10.4133 25.3333 6.93329 25.12 5.55996 24.7467C4.35996 24.4133 3.58663 23.64 3.25329 22.44C3.07996 21.8133 2.95996 20.9733 2.87996 19.9067C2.78663 18.84 2.74663 17.92 2.74663 17.12L2.66663 16C2.66663 13.08 2.87996 10.9333 3.25329 9.56001C3.58663 8.36001 4.35996 7.58667 5.55996 7.25334C6.18663 7.08001 7.33329 6.96 9.09329 6.88C10.8266 6.78667 12.4133 6.74667 13.88 6.74667L16 6.66667C21.5866 6.66667 25.0666 6.88001 26.44 7.25334C27.64 7.58667 28.4133 8.36001 28.7466 9.56001Z" fill="white"/>
</svg>
